<svg xmlns="http://www.w3.org/2000/svg" xmlns:xlink="http://www.w3.org/1999/xlink" version="1.1" x="0px" y="0px"
    viewBox="0 0 512 512" enable-background="new 0 0 512 512" xml:space="preserve">
    <g fill="#06f">
        <path
            d="M341.1,29.2c-13.1-4.9-27.8,1.7-32.7,14.9L156,450.5c-4.9,13.1,1.7,27.8,14.9,32.7c2.9,1.1,23,5.6,32.7-14.9L356,61.9   C360.9,48.8,354.3,34.1,341.1,29.2z" />
        <path
            d="M502.6,238.2l-94.4-94.4c-4-4-10.4-4-14.4,0l-21.5,21.5c-4,4-4,10.4,0,14.4l76.5,76.5l-76.5,76.5c-4,4-4,10.4,0,14.4   l21.5,21.5c4,4,10.4,4,14.4,0l94.4-94.4C512.5,264.2,512.5,248.2,502.6,238.2z" />
        <path
            d="M139.8,165.4l-21.5-21.5c-4-4-10.4-4-14.4,0L9.4,238.2c-9.9,9.9-9.9,26,0,35.9l94.4,94.4c4,4,10.4,4,14.4,0l21.5-21.5   c4-4,4-10.4,0-14.4l-76.5-76.5l76.5-76.5C143.7,175.8,143.7,169.3,139.8,165.4z" />
    </g>
</svg>