<svg xmlns="http://www.w3.org/2000/svg" xmlns:xlink="http://www.w3.org/1999/xlink" x="0px" y="0px"
    viewBox="0 0 48 60" style="enable-background:new 0 0 48 48;" xml:space="preserve">
    <g fill="#06f">
        <path
            d="M18.5,21.31C19.78,22.95,21.77,24,24,24c2.23,0,4.22-1.05,5.5-2.69C30.81,22.98,32.81,24,35,24c3.86,0,7-3.14,7-7   s-3.14-7-7-7c-2.19,0-4.19,1.02-5.5,2.69C28.22,11.05,26.23,10,24,10c-2.23,0-4.22,1.05-5.5,2.69C17.19,11.02,15.19,10,13,10   c-3.86,0-7,3.14-7,7s3.14,7,7,7C15.19,24,17.19,22.98,18.5,21.31z M30.59,14.67C31.45,13.04,33.13,12,35,12c2.76,0,5,2.24,5,5   s-2.24,5-5,5c-1.87,0-3.55-1.04-4.41-2.67C30.85,18.6,31,17.82,31,17S30.85,15.4,30.59,14.67z M24,12c2.76,0,5,2.24,5,5   s-2.24,5-5,5s-5-2.24-5-5S21.24,12,24,12z M17.41,19.33C16.55,20.96,14.87,22,13,22c-2.76,0-5-2.24-5-5s2.24-5,5-5   c1.87,0,3.55,1.04,4.41,2.67C17.15,15.4,17,16.18,17,17S17.15,18.6,17.41,19.33z" />
        <path
            d="M4,33v4c0,0.55,0.45,1,1,1h11h5h6h5h11c0.55,0,1-0.45,1-1v-4c0-4.96-4.04-9-9-9c-2.01,0-3.93,0.66-5.51,1.89   C27.97,24.71,26.07,24,24,24c-2.07,0-3.97,0.71-5.49,1.89C16.93,24.66,15.01,24,13,24C8.04,24,4,28.04,4,33z M35,26   c3.86,0,7,3.14,7,7v3h-9v-3c0-2.16-0.77-4.15-2.04-5.7C32.13,26.46,33.54,26,35,26z M24,26c3.86,0,7,3.14,7,7v3h-4h-6h-4v-3   C17,29.14,20.14,26,24,26z M13,26c1.46,0,2.87,0.46,4.04,1.3C15.77,28.85,15,30.84,15,33v3H6v-3C6,29.14,9.14,26,13,26z" />
    </g>
</svg>