<svg xmlns="http://www.w3.org/2000/svg" xmlns:xlink="http://www.w3.org/1999/xlink" version="1.1" x="0px" y="0px"
    viewBox="0 0 100 71" enable-background="new 0 0 100 71" xml:space="preserve">
    <g fill="#06f">
        <path
            d="M77.517,23.244C76.363,13.403,68.09,5.748,58.088,5.748c-4.596,0-8.947,1.595-12.442,4.526   c-2.082-0.898-4.341-1.368-6.622-1.368c-8.414,0-15.395,6.256-16.535,14.36C14.38,24.403,8.12,31.385,8.12,39.801   c0,9.208,7.491,16.699,16.698,16.699h50.537c9.208,0,16.699-7.491,16.699-16.699C92.055,31.326,85.707,24.307,77.517,23.244z    M75.355,51.5H24.818c-6.45,0-11.698-5.248-11.698-11.699c0-6.449,5.248-11.696,11.705-11.696c1.381,0,2.5-1.119,2.5-2.5   c0-6.45,5.248-11.698,11.698-11.698c1.851,0,3.68,0.44,5.318,1.277c0.362,0.329,0.818,0.548,1.315,0.62   c0.795,0.115,1.585-0.152,2.144-0.721c2.75-2.796,6.403-4.335,10.287-4.335c8.032,0,14.566,6.665,14.566,14.856   c0,1.381,1.119,2.5,2.5,2.5h0.201c6.451,0,11.699,5.247,11.699,11.696C87.055,46.252,81.807,51.5,75.355,51.5z" />
    </g>
</svg>